<?xml version="1.0" encoding="UTF-8" standalone="no"?>
<!DOCTYPE svg PUBLIC "-//W3C//DTD SVG 1.1//EN"
 "http://www.w3.org/Graphics/SVG/1.1/DTD/svg11.dtd">
<!-- Generated by graphviz version 2.38.0 (20140413.2041)
 -->
<!-- Title: day07 Pages: 1 -->
<svg width="700pt" height="188pt"
 viewBox="0.00 0.00 700.34 188.00" xmlns="http://www.w3.org/2000/svg" xmlns:xlink="http://www.w3.org/1999/xlink">
<g id="graph0" class="graph" transform="scale(1 1) rotate(0) translate(4 184)">
<title>day07</title>
<polygon fill="white" stroke="none" points="-4,4 -4,-184 696.344,-184 696.344,4 -4,4"/>
<!-- pbga -->
<g id="node1" class="node"><title>pbga</title>
<ellipse fill="none" stroke="black" cx="262.847" cy="-18" rx="33.5952" ry="18"/>
<text text-anchor="middle" x="262.847" y="-14.3" font-family="Times,serif" font-size="14.00">pbga</text>
</g>
<!-- xhth -->
<g id="node2" class="node"><title>xhth</title>
<ellipse fill="none" stroke="black" cx="31.8472" cy="-18" rx="31.6951" ry="18"/>
<text text-anchor="middle" x="31.8472" y="-14.3" font-family="Times,serif" font-size="14.00">xhth</text>
</g>
<!-- ebii -->
<g id="node3" class="node"><title>ebii</title>
<ellipse fill="none" stroke="black" cx="509.847" cy="-18" rx="27.8951" ry="18"/>
<text text-anchor="middle" x="509.847" y="-14.3" font-family="Times,serif" font-size="14.00">ebii</text>
</g>
<!-- havc -->
<g id="node4" class="node"><title>havc</title>
<ellipse fill="none" stroke="black" cx="346.847" cy="-18" rx="32.4942" ry="18"/>
<text text-anchor="middle" x="346.847" y="-14.3" font-family="Times,serif" font-size="14.00">havc</text>
</g>
<!-- ktlj -->
<g id="node5" class="node"><title>ktlj</title>
<ellipse fill="none" stroke="black" cx="108.847" cy="-18" rx="27" ry="18"/>
<text text-anchor="middle" x="108.847" y="-14.3" font-family="Times,serif" font-size="14.00">ktlj</text>
</g>
<!-- fwft -->
<g id="node6" class="node"><title>fwft</title>
<ellipse fill="none" stroke="black" cx="145.847" cy="-90" rx="29.4969" ry="18"/>
<text text-anchor="middle" x="145.847" y="-86.3" font-family="Times,serif" font-size="14.00">fwft</text>
</g>
<!-- fwft&#45;&#45;xhth -->
<g id="edge3" class="edge"><title>fwft&#45;&#45;xhth</title>
<path fill="none" stroke="black" d="M125.729,-76.6465C105.146,-64.0083 73.3205,-44.466 52.534,-31.7025"/>
</g>
<!-- fwft&#45;&#45;ktlj -->
<g id="edge1" class="edge"><title>fwft&#45;&#45;ktlj</title>
<path fill="none" stroke="black" d="M137.266,-72.7646C131.288,-61.456 123.349,-46.4367 117.382,-35.1473"/>
</g>
<!-- cntj -->
<g id="node7" class="node"><title>cntj</title>
<ellipse fill="none" stroke="black" cx="182.847" cy="-18" rx="28.6953" ry="18"/>
<text text-anchor="middle" x="182.847" y="-14.3" font-family="Times,serif" font-size="14.00">cntj</text>
</g>
<!-- fwft&#45;&#45;cntj -->
<g id="edge2" class="edge"><title>fwft&#45;&#45;cntj</title>
<path fill="none" stroke="black" d="M154.429,-72.7646C160.321,-61.6175 168.119,-46.865 174.055,-35.6334"/>
</g>
<!-- qoyq -->
<g id="node8" class="node"><title>qoyq</title>
<ellipse fill="none" stroke="black" cx="430.847" cy="-18" rx="33.2948" ry="18"/>
<text text-anchor="middle" x="430.847" y="-14.3" font-family="Times,serif" font-size="14.00">qoyq</text>
</g>
<!-- padx -->
<g id="node9" class="node"><title>padx</title>
<ellipse fill="none" stroke="black" cx="346.847" cy="-90" rx="33.2948" ry="18"/>
<text text-anchor="middle" x="346.847" y="-86.3" font-family="Times,serif" font-size="14.00">padx</text>
</g>
<!-- padx&#45;&#45;pbga -->
<g id="edge4" class="edge"><title>padx&#45;&#45;pbga</title>
<path fill="none" stroke="black" d="M329.442,-74.496C315.026,-62.4822 294.64,-45.4941 280.23,-33.4855"/>
</g>
<!-- padx&#45;&#45;havc -->
<g id="edge5" class="edge"><title>padx&#45;&#45;havc</title>
<path fill="none" stroke="black" d="M346.847,-71.6966C346.847,-60.8463 346.847,-46.9167 346.847,-36.1043"/>
</g>
<!-- padx&#45;&#45;qoyq -->
<g id="edge6" class="edge"><title>padx&#45;&#45;qoyq</title>
<path fill="none" stroke="black" d="M364.252,-74.496C378.669,-62.4822 399.054,-45.4941 413.465,-33.4855"/>
</g>
<!-- tknk -->
<g id="node10" class="node"><title>tknk</title>
<ellipse fill="none" stroke="black" cx="346.847" cy="-162" rx="32.4942" ry="18"/>
<text text-anchor="middle" x="346.847" y="-158.3" font-family="Times,serif" font-size="14.00">tknk</text>
</g>
<!-- tknk&#45;&#45;fwft -->
<g id="edge9" class="edge"><title>tknk&#45;&#45;fwft</title>
<path fill="none" stroke="black" d="M320.156,-151.705C281.071,-138.093 208.793,-112.922 170.751,-99.6728"/>
</g>
<!-- tknk&#45;&#45;padx -->
<g id="edge8" class="edge"><title>tknk&#45;&#45;padx</title>
<path fill="none" stroke="black" d="M346.847,-143.697C346.847,-132.846 346.847,-118.917 346.847,-108.104"/>
</g>
<!-- ugml -->
<g id="node11" class="node"><title>ugml</title>
<ellipse fill="none" stroke="black" cx="545.847" cy="-90" rx="34.394" ry="18"/>
<text text-anchor="middle" x="545.847" y="-86.3" font-family="Times,serif" font-size="14.00">ugml</text>
</g>
<!-- tknk&#45;&#45;ugml -->
<g id="edge7" class="edge"><title>tknk&#45;&#45;ugml</title>
<path fill="none" stroke="black" d="M373.685,-151.559C411.454,-138.274 479.934,-114.186 518.157,-100.74"/>
</g>
<!-- ugml&#45;&#45;ebii -->
<g id="edge11" class="edge"><title>ugml&#45;&#45;ebii</title>
<path fill="none" stroke="black" d="M537.316,-72.411C531.577,-61.2524 524.043,-46.6036 518.317,-35.4699"/>
</g>
<!-- jptl -->
<g id="node12" class="node"><title>jptl</title>
<ellipse fill="none" stroke="black" cx="582.847" cy="-18" rx="27" ry="18"/>
<text text-anchor="middle" x="582.847" y="-14.3" font-family="Times,serif" font-size="14.00">jptl</text>
</g>
<!-- ugml&#45;&#45;jptl -->
<g id="edge12" class="edge"><title>ugml&#45;&#45;jptl</title>
<path fill="none" stroke="black" d="M554.616,-72.411C560.514,-61.2524 568.257,-46.6036 574.142,-35.4699"/>
</g>
<!-- gyxo -->
<g id="node13" class="node"><title>gyxo</title>
<ellipse fill="none" stroke="black" cx="659.847" cy="-18" rx="32.4942" ry="18"/>
<text text-anchor="middle" x="659.847" y="-14.3" font-family="Times,serif" font-size="14.00">gyxo</text>
</g>
<!-- ugml&#45;&#45;gyxo -->
<g id="edge10" class="edge"><title>ugml&#45;&#45;gyxo</title>
<path fill="none" stroke="black" d="M567.29,-75.8335C587.8,-63.2394 618.537,-44.3656 638.886,-31.8709"/>
</g>
</g>
</svg>
